<svg width="105" height="105" viewBox="0 0 105 105" fill="none" xmlns="http://www.w3.org/2000/svg">
<g clip-path="url(#clip0_60_75)">
<path d="M46.5122 8.57674L51.9449 16.5524C49.5018 17.9971 46.5183 20.489 42.9944 24.0283C39.6826 27.4648 36.5489 31.4044 33.5932 35.8469C30.6375 40.2894 28.4963 44.9269 27.1697 49.7592C28.3811 49.8273 29.4078 49.9195 30.2496 50.0357C31.3036 50.0491 32.3029 50.22 33.2475 50.5483C36.7109 51.7521 39.213 53.9451 40.7536 57.1273C42.5064 60.2067 42.6715 63.793 41.2489 67.8862C39.6621 72.4516 37.038 75.6861 33.3768 77.5896C29.7704 79.3357 25.9206 79.4974 21.8274 78.0748C15.8451 75.9955 12.0457 72.2047 10.4293 66.7023C8.81277 61.2 9.09888 55.3002 11.2876 49.0031C12.8197 44.5951 15.2517 39.8823 18.5837 34.8648C22.1278 29.7445 26.3016 24.8431 31.1052 20.1606C35.9634 15.3207 41.0991 11.4594 46.5122 8.57674ZM89.9625 23.6788L95.3952 31.6544C92.9521 33.0991 89.9686 35.5911 86.4447 39.1303C83.1329 42.5669 79.9992 46.5064 77.0435 50.9489C74.0878 55.3915 71.9466 60.0289 70.62 64.8612C71.8314 64.9294 72.8581 65.0215 73.6999 65.1377C74.7539 65.1511 75.7532 65.322 76.6978 65.6503C80.1612 66.8541 82.6633 69.0471 84.2039 72.2293C85.9567 75.3088 86.1218 78.8951 84.6992 82.9882C83.1124 87.5537 80.4883 90.7881 76.8271 92.6916C73.2207 94.4377 69.3709 94.5994 65.2777 93.1768C59.2954 91.0975 55.496 87.3067 53.8796 81.8044C52.2631 76.302 52.5492 70.4023 54.7379 64.1051C56.27 59.6971 58.702 54.9843 62.034 49.9668C65.5781 44.8465 69.7519 39.9452 74.5555 35.2626C79.4137 30.4227 84.5494 26.5614 89.9625 23.6788Z" fill="url(#paint0_linear_60_75)"/>
</g>
<defs>
<linearGradient id="paint0_linear_60_75" x1="69.9532" y1="4.11655" x2="-248.974" y2="322.507" gradientUnits="userSpaceOnUse">
<stop stop-color="#FCFCFC" stop-opacity="0"/>
<stop offset="1" stop-color="white" stop-opacity="0.5"/>
</linearGradient>
<clipPath id="clip0_60_75">
<rect width="105" height="105" fill="white"/>
</clipPath>
</defs>
</svg>
