<svg width="588" height="892" viewBox="0 0 588 892" fill="none" xmlns="http://www.w3.org/2000/svg">
<path opacity="0.4" d="M334.731 255.344C327.521 251.178 322.346 251.093 319.207 255.004C315.984 258.915 314.457 265.546 314.457 274.812V324.969C314.457 334.49 313.609 342.396 311.827 348.687C310.046 355.233 307.077 359.824 303.005 362.544C299.018 365.35 293.589 366.03 286.718 364.755C280.017 363.564 271.619 359.994 261.609 354.213L256.859 351.408V311.877L262.882 315.363C270.092 319.528 274.842 320.038 277.218 317.063C279.762 314.087 281.035 307.967 281.035 298.7V254.494C281.035 242.932 282.138 233.836 284.428 227.205C286.634 220.489 291.129 216.238 297.831 214.368C291.129 204.762 286.634 195.24 284.428 185.974C282.222 176.708 281.12 166.336 281.12 154.775V110.568C281.12 101.302 279.847 93.651 277.302 87.7851C274.927 82.0043 270.092 76.9886 262.967 72.823L256.944 69.3375V29.8069L261.694 32.6123C271.704 38.3931 280.102 44.599 286.803 51.1449C293.674 57.7759 299.103 64.7469 303.09 72.2279C307.247 79.709 310.216 87.7001 311.912 96.2864C313.694 104.618 314.542 113.544 314.542 123.065V173.222C314.542 182.489 316.154 190.99 319.292 198.556C322.516 206.122 327.69 212.073 334.816 216.153L334.731 255.344Z" fill="url(#paint0_linear_17_11)"/>
<path opacity="0.4" d="M153.029 110.058C160.239 114.224 165.414 114.309 168.553 110.398C171.776 106.488 173.303 99.8568 173.303 90.5905V40.4334C173.303 30.912 174.151 23.0059 175.933 16.715C177.714 10.169 180.598 5.57839 184.585 2.77299C188.742 0.0526013 194.171 -0.627496 200.872 0.562674C207.743 1.83786 216.226 5.40837 226.236 11.2742L230.986 14.0796V53.6102L224.963 50.1247C217.753 45.9591 212.918 45.3641 210.373 48.3395C207.998 51.3999 206.81 57.5208 206.81 66.8721V111.078C206.81 122.555 205.707 131.736 203.417 138.367C201.211 145.083 196.715 149.334 190.014 151.204C196.715 160.811 201.211 170.332 203.417 179.598C205.622 188.865 206.725 199.236 206.725 210.798V255.004C206.725 264.27 207.913 271.836 210.288 277.702C212.833 283.568 217.668 288.669 224.878 292.749L230.901 296.235V335.765L226.151 332.96C216.141 327.179 207.658 320.888 200.787 314.342C194.086 307.796 188.657 300.826 184.5 293.259C180.513 285.863 177.629 277.872 175.933 269.371C174.151 261.04 173.303 252.114 173.303 242.592V192.435C173.303 183.169 171.691 174.668 168.553 167.101C165.329 159.535 160.155 153.585 153.029 149.504V110.058Z" fill="url(#paint1_linear_17_11)"/>
<path opacity="0.15" d="M359.246 10.9343L538.318 114.564L538.233 544.81L359.161 441.266L359.246 10.9343Z" fill="url(#paint2_linear_17_11)"/>
<path d="M325.57 67.2971L468.081 149.674V189.205L325.57 106.828V67.2971Z" fill="#587298"/>
<path opacity="0.2" d="M382.574 250.329L517.62 328.455V448.067L382.574 369.941V250.329Z" fill="url(#paint3_linear_17_11)"/>
<path opacity="0.15" d="M381.216 158.6L518.298 237.916V251.433L381.216 172.117V158.6Z" fill="white"/>
<path opacity="0.15" d="M381.216 185.804L499.721 254.324V267.841L381.216 199.321V185.804Z" fill="white"/>
<path opacity="0.15" d="M381.216 212.668L481.822 270.816V284.333L381.216 226.185V212.668Z" fill="white"/>
<path opacity="0.2" d="M359.246 10.9343L538.318 114.564V172.202L359.161 68.6576L359.246 10.9343Z" fill="url(#paint4_linear_17_11)"/>
<path opacity="0.2" d="M403.95 66.0221C403.95 74.7784 398.861 78.859 392.583 75.2034C386.306 71.5479 381.216 61.6015 381.216 52.8453C381.216 44.089 386.306 40.0084 392.583 43.6639C398.861 47.3195 403.95 57.3509 403.95 66.0221Z" fill="white"/>
<path opacity="0.15" d="M36.5608 142.703L587.773 461.499L587.688 892L36.476 573.205L36.5608 142.703Z" fill="url(#paint5_linear_17_11)"/>
<path d="M0 248.798L142.426 331.175V370.705L0 288.414V248.798Z" fill="#EA8C4F"/>
<path opacity="0.15" d="M73.715 357.444L389.954 540.39V553.907L73.715 370.961V357.444Z" fill="white"/>
<path opacity="0.15" d="M73.715 384.648L346.522 542.43V555.947L73.715 398.165V384.648Z" fill="white"/>
<path opacity="0.15" d="M73.715 411.596L305.889 545.915V559.432L73.715 425.113V411.596Z" fill="white"/>
<path opacity="0.2" d="M287.143 582.981L565.209 743.824V863.436L287.143 702.593V582.981Z" fill="url(#paint6_linear_17_11)"/>
<path opacity="0.15" d="M308.095 618.771L350 642.999V682.53L308.095 658.302V618.771Z" fill="white"/>
<path opacity="0.15" d="M359.416 650.395L401.321 674.624V714.154L359.416 689.926V650.395Z" fill="white"/>
<path opacity="0.15" d="M410.991 679.724L452.896 703.953V743.484L410.991 719.255V679.724Z" fill="white"/>
<path opacity="0.15" d="M462.567 710.924L504.472 735.153V774.683L462.567 750.455V710.924Z" fill="white"/>
<path opacity="0.2" d="M21.97 425.029L253.465 558.923V678.535L21.97 544.556V425.029Z" fill="url(#paint7_linear_17_11)"/>
<path opacity="0.15" d="M45.2976 469.15L229.205 575.5V589.017L45.2976 482.667V469.15Z" fill="white"/>
<path opacity="0.15" d="M45.2976 496.354L192.559 581.536V595.053L45.2976 509.785V496.354Z" fill="white"/>
<path opacity="0.2" d="M36.5605 142.703L587.009 461.159V519.477L36.5605 201.106V142.703Z" fill="url(#paint8_linear_17_11)"/>
<path opacity="0.2" d="M96.5343 206.547C96.5343 215.304 91.4446 219.384 85.1673 215.729C78.89 212.073 73.8004 202.127 73.8004 193.37C73.8004 184.614 78.89 180.534 85.1673 184.189C91.4446 187.845 96.5343 197.876 96.5343 206.547Z" fill="white"/>
<defs>
<linearGradient id="paint0_linear_17_11" x1="383.56" y1="17.8759" x2="244.174" y2="258.987" gradientUnits="userSpaceOnUse">
<stop stop-color="#424C57"/>
<stop offset="0.903" stop-color="white" stop-opacity="0"/>
</linearGradient>
<linearGradient id="paint1_linear_17_11" x1="303.35" y1="1.51234" x2="163.948" y2="242.593" gradientUnits="userSpaceOnUse">
<stop stop-color="#414B56"/>
<stop offset="0.903" stop-color="white" stop-opacity="0"/>
</linearGradient>
<linearGradient id="paint2_linear_17_11" x1="541.685" y1="116.519" x2="369.898" y2="413.497" gradientUnits="userSpaceOnUse">
<stop stop-color="white"/>
<stop offset="1" stop-color="white" stop-opacity="0"/>
</linearGradient>
<linearGradient id="paint3_linear_17_11" x1="475.956" y1="304.285" x2="428.211" y2="386.823" gradientUnits="userSpaceOnUse">
<stop stop-color="white"/>
<stop offset="1" stop-color="white" stop-opacity="0"/>
</linearGradient>
<linearGradient id="paint4_linear_17_11" x1="420.643" y1="11.8282" x2="475.454" y2="166.667" gradientUnits="userSpaceOnUse">
<stop stop-color="#424C58"/>
<stop offset="1" stop-color="white" stop-opacity="0"/>
</linearGradient>
<linearGradient id="paint5_linear_17_11" x1="405.124" y1="355.856" x2="314.132" y2="513.198" gradientUnits="userSpaceOnUse">
<stop stop-color="white"/>
<stop offset="1" stop-color="white" stop-opacity="0"/>
</linearGradient>
<linearGradient id="paint6_linear_17_11" x1="452.043" y1="678.347" x2="404.298" y2="760.886" gradientUnits="userSpaceOnUse">
<stop stop-color="white"/>
<stop offset="1" stop-color="white" stop-opacity="0"/>
</linearGradient>
<linearGradient id="paint7_linear_17_11" x1="163.546" y1="506.882" x2="115.801" y2="589.421" gradientUnits="userSpaceOnUse">
<stop stop-color="#434D58"/>
<stop offset="1" stop-color="white" stop-opacity="0"/>
</linearGradient>
<linearGradient id="paint8_linear_17_11" x1="173.139" y1="95.7139" x2="382.822" y2="450.136" gradientUnits="userSpaceOnUse">
<stop stop-color="#546F94"/>
<stop offset="1" stop-color="white" stop-opacity="0"/>
</linearGradient>
</defs>
</svg>
